<?xml version="1.0" encoding="UTF-8"?>
<svg id="Layer_2" data-name="Layer 2" xmlns="http://www.w3.org/2000/svg" viewBox="0 0 644.57 126.99">
  <defs>
    <style>
      .cls-1 {
        fill: #343441;
      }
    </style>
  </defs>
  <g id="Layer_1-2" data-name="Layer 1">
    <g>
      <path class="cls-1" d="M12.19,123.73c-3.99-9.5-7.98-19-11.97-28.51-.51-1.21-.13-2.6.93-3.38,12.88-9.48,27.83-22.12,42.79-38.61C60.79,34.68,72.88,16.53,81.44,1.44c.69-1.22,2.16-1.75,3.48-1.25,14.42,5.48,28.85,10.95,43.27,16.43,1.1.42,1.83,1.48,1.83,2.66v2.5c0,2.73,3.47,3.89,5.11,1.71l15.77-20.88c.74-.98,2.01-1.37,3.17-.98l44.61,14.95c1.28.43,2.07,1.68,1.92,3.02-1.56,13.08-2.61,27.77-2.65,43.81-.04,16.33.99,31.28,2.54,44.58.2,1.69-1.12,3.17-2.82,3.17h-48.17c-1.57,0-2.84-1.27-2.84-2.84v-1.62c0-2.73-3.47-3.89-5.11-1.71l-15.77,20.88c-.74.98-2.01,1.37-3.17.98l-44.87-15.04c-1.16-.39-1.94-1.47-1.94-2.7v-14.29c0-2.41-2.78-3.72-4.64-2.2-6.58,5.38-14.31,11.05-23.26,16.54-11.55,7.1-22.5,12.29-32.05,16.12-1.44.58-3.06-.12-3.66-1.55Z"/>
      <g>
        <path class="cls-1" d="M298.16,93.54c0-24.91.27-33.8.27-33.94h-.4c-.13.14-4.78,9.03-8.24,15.33l-6.51,12.12c-.24.46-.72.74-1.24.74h-12.41c-.51,0-.99-.28-1.23-.73l-6.51-11.99c-3.59-6.43-8.1-15.33-8.24-15.46h-.53c0,.14.27,9.03.27,33.94v16.52c0,.78-.63,1.4-1.4,1.4h-22.7c-.78,0-1.4-.63-1.4-1.4V17.08c0-.78.63-1.4,1.4-1.4h24.86c.51,0,.99.28,1.23.73l20.59,37.86h.53l20.72-37.86c.25-.45.72-.73,1.23-.73h23.8c.78,0,1.4.63,1.4,1.4v92.99c0,.78-.63,1.4-1.4,1.4h-22.7c-.78,0-1.4-.63-1.4-1.4v-16.52Z"/>
        <path class="cls-1" d="M350.66,15.67h22.7c.78,0,1.4.63,1.4,1.4v92.99c0,.78-.63,1.4-1.4,1.4h-22.7c-.78,0-1.4-.63-1.4-1.4V17.08c0-.78.63-1.4,1.4-1.4Z"/>
        <path class="cls-1" d="M436.88,15.67c23.11,0,37.19,13,37.19,33.94s-14.08,33.8-37.19,33.8h-9.62c-.78,0-1.4.63-1.4,1.4v25.25c0,.78-.63,1.4-1.4,1.4h-22.7c-.78,0-1.4-.63-1.4-1.4V17.08c0-.78.63-1.4,1.4-1.4h35.13ZM437.68,60.56c7.7,0,10.89-4.38,10.89-10.54s-3.06-10.4-10.89-10.4h-10.42c-.78,0-1.4.63-1.4,1.4v18.13c0,.78.63,1.4,1.4,1.4h10.42Z"/>
        <path class="cls-1" d="M497.09,15.67h22.7c.78,0,1.4.63,1.4,1.4v68.63c0,.78.63,1.4,1.4,1.4h36.91c.78,0,1.4.63,1.4,1.4v21.55c0,.78-.63,1.4-1.4,1.4h-62.41c-.78,0-1.4-.63-1.4-1.4V17.08c0-.78.63-1.4,1.4-1.4Z"/>
        <path class="cls-1" d="M609.93,111.47h-22.7c-.78,0-1.4-.63-1.4-1.4v-34.89c0-.25-.07-.49-.19-.7l-32.87-56.7c-.54-.93.13-2.1,1.21-2.11l26.07-.12c.53,0,1.01.29,1.26.76l12.23,23.87c2.92,5.61,5.45,10.81,5.58,10.95h.53c.13-.14,2.79-5.47,5.71-10.95l12.75-23.76c.24-.46.72-.74,1.24-.74h23.82c1.08,0,1.76,1.17,1.21,2.11l-32.86,56.68c-.12.21-.19.46-.19.7v34.89c0,.78-.63,1.4-1.4,1.4Z"/>
      </g>
    </g>
  </g>
</svg>