<?xml version="1.0" encoding="UTF-8"?>
<svg id="Layer_2" data-name="Layer 2" xmlns="http://www.w3.org/2000/svg" viewBox="0.2 0 627.07 126.99">
  <defs>
    <style>
      .cls-1 {
        fill: #4381e4;
      }

      .cls-2 {
        fill: #343441;
      }
    </style>
  </defs>
  <g id="Layer_1-2" data-name="Layer 1">
    <g>
      <g>
        <path class="cls-2" d="M299.8,19.78h27.69c1.23,0,1.88.65,1.88,2.01v87.53c0,.78-.78,1.88-1.88,1.88h-24.52c-1.04,0-1.94-.91-2.01-1.88v-38.95l-13.33,38.82c-.52,1.36-1.62,2-3.37,2h-14.56c-1.68,0-2.78-.65-3.3-2l-13.39-38.82v38.95c0,.78-.91,1.88-2.01,1.88h-24.52c-1.04,0-1.81-.91-1.81-1.88V21.78c0-1.36.58-2.01,1.81-2.01h27.69c2.01,0,3.56.91,4.53,2.65l18.31,50.59,18.24-50.59c.97-1.75,2.52-2.65,4.53-2.65h0Z"/>
        <path class="cls-2" d="M353.01,19.78h23.48c1.36,0,2.01.65,2.01,2.01v87.53c0,1.23-.65,1.88-2.01,1.88h-23.48c-.84,0-1.81-.91-1.81-1.88V21.78c0-1.04.97-2.01,1.81-2.01Z"/>
        <path class="cls-2" d="M402.15,19.78h31.31c22.97,0,37.13,12.42,37.13,31.51s-14.17,31.57-37.13,31.57h-5.43v26.46c0,.78-.84,1.88-2.13,1.88h-23.74c-.84,0-1.81-.91-1.81-1.88V21.78c0-1.04.97-2.07,1.81-2.01h0ZM427.77,43.45v15.66h6.86c4.59,0,7.83-3.23,7.83-7.83s-3.24-7.83-7.83-7.83h-6.86Z"/>
        <path class="cls-2" d="M515.85,21.78v65.54h24.65c1.17,0,1.75.65,1.68,1.88l-1.81,20.12c-.19,1.23-.91,1.88-2.13,1.88h-47.87c-1.04,0-1.94-.91-1.94-1.88V21.78c0-1.04.91-2.07,1.94-2.01h23.48c1.04,0,1.94.91,2.01,2.01h0Z"/>
        <path class="cls-2" d="M597.78,19.78h27.56c1.23,0,2.2,1.04,1.49,2.14l-29.31,52.73v34.68c0,.84-.91,1.88-2.01,1.88h-23.29c-1.03,0-2-.91-2-1.88v-34.68l-29.24-52.73c-.71-1.04.19-2.14,1.42-2.14h27.56c1.42,0,2.46.71,3.04,2.14l10.87,23.81,10.87-23.81c.58-1.42,1.62-2.14,3.04-2.14Z"/>
      </g>
      <path class="cls-1" d="M12.19,123.73c-3.99-9.5-7.98-19-11.97-28.51-.51-1.21-.13-2.6.93-3.38,12.88-9.48,27.83-22.12,42.79-38.61C60.79,34.68,72.88,16.53,81.44,1.44c.69-1.22,2.16-1.75,3.48-1.25,14.42,5.48,28.85,10.95,43.27,16.43,1.1.42,1.83,1.48,1.83,2.66v2.5c0,2.73,3.47,3.89,5.11,1.71l15.77-20.88c.74-.98,2.01-1.37,3.17-.98l44.61,14.95c1.28.43,2.07,1.68,1.92,3.02-1.56,13.08-2.61,27.77-2.65,43.81-.04,16.33.99,31.28,2.54,44.58.2,1.69-1.12,3.17-2.82,3.17h-48.17c-1.57,0-2.84-1.27-2.84-2.84v-1.62c0-2.73-3.47-3.89-5.11-1.71l-15.77,20.88c-.74.98-2.01,1.37-3.17.98l-44.87-15.04c-1.16-.39-1.94-1.47-1.94-2.7v-14.29c0-2.41-2.78-3.72-4.64-2.2-6.58,5.38-14.31,11.05-23.26,16.54-11.55,7.1-22.5,12.29-32.05,16.12-1.44.58-3.06-.12-3.66-1.55Z"/>
    </g>
  </g>
</svg>