<?xml version="1.0" encoding="UTF-8"?>
<svg id="Layer_1" data-name="Layer 1" xmlns="http://www.w3.org/2000/svg" viewBox="0 0 1080 1080">
  <defs>
    <style>
      .cls-1 {
        fill: #4381e4;
      }

      .cls-2 {
        fill: #343441;
      }
    </style>
  </defs>
  <g>
    <path class="cls-1" d="M460.67,606.82c-9.47-3.17-15.85-12.05-15.85-22.03v-42.94c0-26.62-21.66-48.28-48.28-48.28-11.05,0-21.89,3.89-30.52,10.95-36.57,29.91-75.49,57.59-115.69,82.28-14.12,8.67-25.77,15.08-36.66,20.18-12.92,6.04-18.83,8.12-24.55,10.13-2.98,1.05-6.01,2.11-9.58,3.55-6.17,2.49-10.91,4.8-15.31,7.06-6.14,3.16-19.66,10.7-37.99,21.38-12.59,7.34-28.79,1.43-33.61-12.32-.81-2.3-1.63-4.61-2.46-6.93-5.8-16.17-11.8-31.62-17.9-46.32l-.5-1.19-.59-1.15c-3.25-6.08-6.53-12.9-9.6-20.45-.02-.06-.04-.11-.07-.17-3.71-9.14-1.08-19.62,6.38-26.08,15.88-13.75,36.33-31.57,59.89-52.38,55.92-49.4,121.95-105.92,144.81-131.1,67.28-74.1,127.33-155.06,178.84-241.06,5.76-9.62,17.64-13.67,28.12-9.69l163.44,62.07c7.14,2.71,12.45,8.77,14.29,16.18,5.22,21.05,24.31,36.7,46.99,36.7,15.16,0,29.15-7,38.36-19.2l62.62-82.92c6.02-7.97,16.46-11.2,25.93-8.03l167.81,56.25c10.33,3.46,16.81,13.63,15.71,24.47-6.54,64.62-9.93,129.98-10.07,194.77-.14,61.9,2.69,124.35,8.41,186.23,1.26,13.59-9.48,25.3-23.13,25.3h-167.45c-8.32,0-15.68-4.83-19.65-12.15-8.19-15.11-24.22-25.39-42.61-25.39-15.17,0-29.15,7-38.37,19.2l-62.62,82.92c-6.02,7.97-16.46,11.2-25.93,8.03l-172.61-57.85Z"/>
    <g>
      <path class="cls-1" d="M296.29,273.14l46.29,38.01c-6.1,7.15-14.01,16.43-23.38,27.43-4.74,5.44-9.86,11.31-15.29,17.55-5.59,6.21-10.95,12.61-18.15,20.11-9.17,9.49-17.33,17.39-24.87,24.66-7.5,7.21-14.37,13.8-20.79,19.97-12.73,12.24-23.7,22.8-34.45,33.13-10.71,10.31-21.22,20.37-33.14,31.49-11.92,11.12-25.17,23.33-41.87,38.02-12.1,10.64-22.98,20.21-33.57,29.52l-1.99,1.73c-.21.18-.02,0-.05.03.05-.06,0-.02,0-.04-.02-.01-.06-.02-.11-.02-.09,0-.27.05-.39.21-.04.04-.05.07-.1.12-.07-.13.08.25.21.55l.37.91.77,1.83c1.06,2.48,2.14,4.91,3.41,7.58.74,1.51,1.49,2.92,2.06,4.49l.41,1.06.21.62.42,1.25c.56,1.67,1.13,3.37,1.71,5.09,1.13,3.44,2.3,6.96,3.49,10.57,2.71,8.32,5.18,16.14,7.47,23.6.29.93.57,1.86.85,2.78l.39,1.3c-.06-.12-.18-.3-.25-.34l-.12.89c-.08.63-.14,1.36,0,2.06.24,1.44,1.16,2.76,2.48,3.53,1.36.82,2.92.68,4.6.26l1.03-.23.27-.06.13-.03.45-.21,1.84-.87c2.46-1.17,4.93-2.34,7.43-3.53,4.96-2.42,10.02-4.89,15.25-7.45,10.22-5.06,24.34-10.77,36.71-14.79,5.57-1.93,11.39-4.44,17.84-7.5,6.22-2.94,12.57-6.37,19.34-10.42,13.42-8.06,28.6-18.55,45.09-30.83,6.07-4.55,17.13-13,31.51-24.5,7.18-5.76,15.2-12.27,23.82-19.46,4.29-3.62,8.75-7.38,13.36-11.27,2.29-1.96,4.61-3.96,6.97-5.98,1.18-1.02,2.36-2.04,3.55-3.07l1.18-.99,1.51-1.22c1.02-.8,2.07-1.57,3.12-2.34,8.53-6.02,18.54-10.46,29.41-12.59,10.92-2.15,22.46-1.8,33.65,1.02,11.18,2.87,21.96,8.28,30.9,16.05,8.97,7.71,16.3,17.58,21.03,28.77,2.24,5.64,4.05,11.51,4.93,17.56l.63,4.54c.13,1.52.18,3.04.25,4.56l.08,2.28.03,1.14v.78s-.05,2.85-.05,2.85c-.17,7.6-.34,15.23-.51,22.86l-.17,5.73c-.06,1.78-.12,4.47-.19,4.03-.12.54-.32,1.14-.31,1.78,0,1.26.59,2.6,1.72,3.44l-31.03,52.29c-9.89-4.53-18.47-12.16-24.06-21.8-5.7-9.65-8.21-20.98-7.38-32.84l.11-3.78.12-2.24c.09-1.5.18-3,.26-4.51.2-3.02.4-6.06.6-9.14.46-6.14.92-12.4,1.39-18.78l.11-1.21.16-.94c.09-.63.01-1.25.1-1.91.02-.65-.12-1.27-.1-1.95-.07-.65-.26-1.28-.32-1.98-.57-2.66-1.9-5.34-3.85-7.68-1.95-2.34-4.55-4.29-7.53-5.51-2.94-1.24-6.51-1.63-9.79-1.11-2.79.46-5.57,1.46-8.01,2.98-.62.36-1.21.78-1.78,1.21-.3.2-.56.45-.84.66l-1.69,1.39-7.47,6.13c-10,8.13-20.14,16.07-30.42,23.84-20.56,15.53-41.68,30.34-63.31,44.38-5.42,3.51-10.83,6.96-16.35,10.4-5.57,3.47-11.25,6.88-17.1,10.22-5.85,3.33-11.89,6.58-18.14,9.65-6.24,3.03-12.1,5.77-18.83,8.55-3.3,1.37-6.85,2.71-9.96,3.82l-7.87,2.98c-5.01,2.08-9.66,4.54-14.54,6.73l-35.84,20.54c-2.52,1.24-5.01,2.77-7.57,3.68-2.56,1.06-5.1,1.78-7.7,2.45-5.2,1.27-10.61,1.73-15.94,1.25-15.85-1.17-30.86-10.12-39.15-23.53-1.16-1.56-1.93-3.49-2.74-5.38l-2.44-5.64c-.83-1.86-1.64-3.74-2.28-5.76l-.54-1.52-.69-1.81-.75-2.04c-1.48-4.08-2.95-8.15-4.42-12.21-2.88-8.16-5.75-16.3-8.61-24.43l-1.06-3.06-.47-1.36-.07-.29-.04-.14c-.03-.06.02.02-.04-.1l-.21-.42-.82-1.68-1.6-3.39c-1.05-2.27-2.06-4.55-3.04-6.84l-1.89-4.47-2.22-5.55c-5.2-13.24-4.54-28.25,1.94-40.63,3.16-6.23,7.69-11.57,13.18-16.15l6.62-5.54,4.66-3.85,122.81-113.03c10.15-9.43,20.22-18.87,30.09-28.35,9.83-9.45,19.65-19.03,28.31-28.31,1.15-1.18,2.02-2.25,3.05-3.38.98-1.09,1.97-2.19,3.12-3.56l6.64-7.78c4.46-5.16,8.77-10.45,13.14-15.68,8.7-10.51,17.21-21.16,25.63-31.87Z"/>
      <path class="cls-1" d="M1042.5,247.12l-59.74-4.25c.81-9.32,1.85-21.42,3.09-35.76.5-5.45,1.04-11.32,1.61-17.56.2-1.56-.54-3.31-2.04-4.21-.77-.47-1.65-.59-1.89-.62-9.64-2.99-18.44-5.72-26.6-8.24-9.13-2.75-17.54-5.28-25.45-7.66-15.88-4.6-29.78-8.62-43.49-12.59-13.72-3.93-27.26-7.84-42.35-12.41-3.77-1.15-7.64-2.34-11.64-3.56-2-.62-4.03-1.25-6.09-1.9l-.34-.11h0s-.02.02-.02.02l-.03.02-.06.04c-.13.12-.15.27-.15.33v.03c-5.95,7.95-11.5,15.36-16.84,22.48-6.04,8.01-11.89,15.68-17.81,23.31-5.92,7.63-11.91,15.21-18.24,23.03-1.59,1.95-3.19,3.92-4.82,5.92-1.03,1.24-2.06,2.49-3.1,3.75-1.35,1.64-2.85,3.2-4.35,4.76-6.14,6.14-13.52,11.52-21.94,15.48-8.38,3.95-17.07,6.19-25.44,6.96-8.38.8-16.38.11-23.97-1.53-15.18-3.48-27.94-11.25-37.47-21.06-4.75-4.95-8.72-10.43-11.91-16.26-1.61-2.91-2.95-5.95-4.17-9.02-1.05-2.9-2.43-7.12-2.25-7.45l-.13-.91c-.04-.28-.01-.35-.02-.54-.02-.32-.05-.65-.11-.97-.12-.65-.34-1.28-.65-1.88-.63-1.21-1.69-2.2-2.99-2.9l-.46-.28-.24-.14-.76-.34c-1.02-.45-2.04-.9-3.08-1.36-2.07-.9-4.17-1.81-6.29-2.74-4.28-1.8-8.68-3.65-13.25-5.58-9.16-3.77-19.03-7.66-29.9-11.74-21.74-8.16-47.47-17.05-79.54-27.23-2.5-.79-5.7-1.8-9.57-3.02-1.94-.61-4.04-1.28-6.31-2-1.07-.34-2.17-.68-3.31-1.04-.31-.05-.64-.1-.98-.15-1.27-.25-2.73-.32-4.08.41-1.36.66-2.36,2.09-2.77,3.64l-.15.47-.07.23-.62,1.14c-.88,1.59-1.78,3.22-2.69,4.86-1.8,3.3-3.75,6.65-5.73,10.1-3.94,6.91-8.2,14.11-12.72,21.55-9.05,14.88-19.15,30.73-30.27,46.83-22.11,32.29-48.18,65.66-75.71,95.62l-46.29-38.01c13.22-17.45,28.87-34.43,45.39-53.32,16.49-18.87,33.87-39.64,50.03-64.43,5.98-9.14,11.81-18.37,17.61-27.62l8.56-13.96,10.14-16.9c4.05-6.75,9.2-12.41,15.56-16.65,6.29-4.27,13.58-6.99,21.1-8.03,7.56-1.04,15.25-.28,22.65,2.14,1.87.59,3.72,1.26,5.57,1.97l4.86,1.82,6.12,2.27,48.96,18.14,99.92,37.04c12.87,4.71,23.51,14.58,29.16,27,.7,1.54,1.34,3.16,1.89,4.73l1.24,4.07.31,1.02c.09.27.25.85.26.81l.23.51c.16.34.25.7.42,1.03.67,1.33,1.44,2.61,2.36,3.8,3.37,4.24,8.18,7.11,13.4,7.88,5.44.86,10.72-.34,15.21-3.55,1.12-.81,2.18-1.76,3.18-2.84l.38-.4c.12-.11.47-.57.69-.84l1.52-1.88,3.04-3.75,12.18-15c8.09-10.02,16.2-20.06,24.35-30.15l21.58-29.89c4.52-6.12,10.09-11.18,16.67-14.74,6.54-3.58,13.9-5.58,21.37-5.93,7.51-.45,14.91,1.33,22.26,3.84l13.16,4.09,49.12,15.18,101.72,31.51c14.34,4.58,26.17,14.89,32.52,28.27,1.59,3.33,2.84,6.82,3.76,10.4.89,3.6,1.34,7.29,1.57,11.01.2,3.73-.2,7.6-.5,11.41l-.59,7.46c-1.09,15.48-2,30.96-2.72,46.45Z"/>
      <path class="cls-1" d="M443.7,635.42l31.03-52.29c.47.18.98.38,1.52.59,2.5.86,5.15,1.77,7.96,2.74,5.61,1.91,11.81,4.01,18.53,6.29,13.45,4.53,29.02,9.69,46.21,15.25,28.14,9.07,50.11,15.74,69.7,21.5,4.9,1.43,9.65,2.82,14.3,4.17l1.74.5c.52.15,1.39.41,1.23.33l.41-.02c.26-.02.51-.04.74-.11.95-.28,1.49-1.21,1.51-1.99v-.16s0-.08,0-.08c0,0-.04,0,.23-.38.76-1.11,1.54-2.23,2.32-3.37,1.58-2.27,3.2-4.61,4.87-7.01,3.38-4.78,6.96-9.85,10.8-15.29,7.73-10.82,16.62-22.98,27.13-37.03,3.51-4.69,6.89-9.21,10.17-13.6l1.23-1.64,2.05-2.6c1.39-1.76,2.92-3.4,4.44-5.03,3.1-3.22,6.44-6.15,9.95-8.81,14.13-10.6,31.33-15.97,47.99-15.9,16.67,0,33.59,5.41,47.44,15.75,6.89,5.17,13.16,11.61,18.15,18.97l1.61,2.53.4.64.2.32c.04.06,0,.03.01.04v.07s-.06.32-.06.32c-.02.22,0,.48.06.73.12.44.39.88.79,1.16l.32.23.17.12c.26.04,1.05.08,1.54.12,2.26.16,4.48.32,6.68.48,8.77.71,17.06,1.37,25.1,2.02,16.08,1.37,31.2,2.73,47.31,3.82,16.11,1.09,33.23,1.91,53.31,2.2,5.02.03,10.23.07,15.66.11,1.12,0,2.26-.02,3.42-.03,1.03-.02,2.09-.03,3.12-.33,2.06-.55,3.93-2.06,4.95-4.12.51-1.03.8-2.19.82-3.38.03-1.2-.3-2.39-.51-3.57-.17-.74-.36-1.6-.57-2.56-.31-2.24-.64-4.71-1-7.35-.7-5.33-1.49-11.34-2.32-17.57-2.01-15.56-7.55-57.2-9.98-110.5-2.56-53.27-1.51-118.19,6.37-178.85l59.74,4.25c-1.38,43.9-12.44,92.33-11.58,151.82.42,26.7,1.37,53.4,2.9,80.05.76,13.33,1.65,26.65,2.67,39.96l1.65,19.95,2.25,24.4.08,8.81c-.09,2.9-.54,5.68-1.16,8.47-1.24,5.55-3.47,10.85-6.5,15.66-6,9.65-15.43,17.11-26.21,20.82-5.39,1.87-11.02,2.84-17.1,2.94l-14.64.1-19.69.16-78.77.64c-13.2.1-26.28,0-39.28-.23l-11-.19c-6.04.04-11.94-.47-17.53-2.23-11.21-3.43-20.96-10.92-27.31-20.7l-3.56-6.03c-.5-.97-.89-1.42-1.26-2.04-.85-1.14-1.78-2.22-2.81-3.24-1.07-.96-2.21-1.85-3.43-2.65-1.25-.73-2.55-1.39-3.91-1.93-2.72-.99-5.79-1.5-8.86-1.36-3.03.16-5.97.93-8.72,2.29-1.96,1.32-3.77,2.87-5.29,4.78-.4.45-.75.97-1.11,1.46l-2.01,2.78-4.37,6.07-17.47,24.29-36.73,50.98c-9.55,13.24-25.16,21.32-41.38,21.37-4.04.04-8.06-.49-12.05-1.34-1.99-.51-3.99-1.05-5.97-1.69l-5.52-1.77-12.82-3.96-51.28-15.83-51.28-15.83-25.64-7.91-12.82-3.96-6.83-2.12c-4.22-1.37-8.55-2.63-12.49-4.5Z"/>
    </g>
  </g>
  <g>
    <path class="cls-2" d="M222.68,778.15h69.69c3.09,0,4.72,1.63,4.72,5.05v220.31c0,1.96-1.96,4.72-4.72,4.72h-61.71c-2.61,0-4.88-2.28-5.05-4.72v-98.02l-33.54,97.7c-1.3,3.42-4.07,5.05-8.47,5.05h-36.63c-4.23,0-7-1.63-8.3-5.05l-33.7-97.7v98.02c0,1.96-2.28,4.72-5.05,4.72h-61.71c-2.61,0-4.56-2.28-4.56-4.72v-220.31c0-3.42,1.46-5.05,4.56-5.05h69.69c5.05,0,8.96,2.28,11.4,6.68l46.08,127.33,45.91-127.33c2.45-4.39,6.35-6.68,11.4-6.68h0Z"/>
    <path class="cls-2" d="M356.6,778.15h59.11c3.42,0,5.05,1.63,5.05,5.05v220.31c0,3.09-1.63,4.72-5.05,4.72h-59.11c-2.12,0-4.56-2.28-4.56-4.72v-220.31c0-2.61,2.44-5.05,4.56-5.05Z"/>
    <path class="cls-2" d="M480.26,778.15h78.81c57.8,0,93.46,31.26,93.46,79.3s-35.66,79.46-93.46,79.46h-13.68v66.59c0,1.96-2.12,4.72-5.37,4.72h-59.76c-2.12,0-4.56-2.28-4.56-4.72v-220.31c0-2.61,2.44-5.21,4.56-5.05h0ZM544.74,837.74v39.4h17.26c11.56,0,19.7-8.14,19.7-19.7s-8.15-19.7-19.7-19.7h-17.26Z"/>
    <path class="cls-2" d="M766.43,783.2v164.95h62.03c2.93,0,4.4,1.63,4.24,4.72l-4.56,50.64c-.49,3.1-2.28,4.72-5.37,4.72h-120.49c-2.61,0-4.89-2.28-4.89-4.72v-220.31c0-2.61,2.28-5.21,4.89-5.05h59.11c2.61,0,4.89,2.28,5.05,5.05h0Z"/>
    <path class="cls-2" d="M972.64,778.15h69.37c3.09,0,5.53,2.61,3.74,5.38l-73.76,132.71v87.27c0,2.12-2.28,4.72-5.05,4.72h-58.62c-2.6,0-5.05-2.28-5.05-4.72v-87.27l-73.6-132.71c-1.79-2.61.49-5.38,3.58-5.38h69.36c3.58,0,6.19,1.79,7.66,5.38l27.36,59.92,27.36-59.92c1.47-3.59,4.07-5.38,7.65-5.38Z"/>
  </g>
</svg>