<?xml version="1.0" encoding="UTF-8"?>
<svg id="Layer_1" data-name="Layer 1" xmlns="http://www.w3.org/2000/svg" viewBox="0 0 1080 1080">
  <defs>
    <style>
      .cls-1 {
        fill: #4381e4;
      }

      .cls-2 {
        fill: #343441;
      }
    </style>
  </defs>
  <g>
    <path class="cls-1" d="M144.64,615.79c-3.21-1.08-5.37-4.08-5.37-7.46v-14.54c0-9.02-7.34-16.35-16.35-16.35-3.74,0-7.41,1.32-10.34,3.71-12.39,10.13-25.57,19.51-39.18,27.87-4.78,2.94-8.73,5.11-12.42,6.84-4.38,2.05-6.38,2.75-8.32,3.43-1.01.35-2.03.71-3.25,1.2-2.09.84-3.7,1.63-5.19,2.39-2.08,1.07-6.66,3.62-12.87,7.24-4.26,2.49-9.75.49-11.38-4.17-.27-.78-.55-1.56-.83-2.35-1.97-5.48-4-10.71-6.06-15.69l-.17-.4-.2-.39c-1.1-2.06-2.21-4.37-3.25-6.93,0-.02-.02-.04-.02-.06-1.26-3.1-.36-6.65,2.16-8.83,5.38-4.66,12.31-10.69,20.28-17.74,18.94-16.73,41.3-35.88,49.05-44.41,22.79-25.1,43.13-52.52,60.57-81.65,1.95-3.26,5.97-4.63,9.52-3.28l55.36,21.02c2.42.92,4.22,2.97,4.84,5.48,1.77,7.13,8.23,12.43,15.92,12.43,5.14,0,9.87-2.37,12.99-6.5l21.21-28.09c2.04-2.7,5.57-3.79,8.78-2.72l56.84,19.05c3.5,1.17,5.69,4.62,5.32,8.29-2.22,21.89-3.36,44.03-3.41,65.97-.05,20.97.91,42.12,2.85,63.08.43,4.6-3.21,8.57-7.83,8.57h-56.72c-2.82,0-5.31-1.64-6.66-4.12-2.77-5.12-8.2-8.6-14.43-8.6-5.14,0-9.87,2.37-13,6.5l-21.21,28.08c-2.04,2.7-5.57,3.79-8.78,2.72l-58.46-19.59Z"/>
    <g>
      <path class="cls-1" d="M88.96,502.77l15.68,12.87c-2.06,2.42-4.74,5.57-7.92,9.29-1.61,1.84-3.34,3.83-5.18,5.95-1.89,2.1-3.71,4.27-6.15,6.81-3.11,3.22-5.87,5.89-8.42,8.35-2.54,2.44-4.87,4.67-7.04,6.76-4.31,4.15-8.03,7.72-11.67,11.22-3.63,3.49-7.19,6.9-11.22,10.67-4.04,3.77-8.53,7.9-14.18,12.88-4.1,3.61-7.78,6.85-11.37,10l-.67.59c-.07.06,0,0-.02,0,.02-.02,0,0,0-.01,0,0-.02,0-.04,0-.03,0-.09.02-.13.07-.01.01-.02.03-.03.04-.02-.04.03.08.07.19l.13.31.26.62c.36.84.72,1.66,1.15,2.57.25.51.51.99.7,1.52l.14.36.07.21.14.42c.19.57.38,1.14.58,1.72.38,1.16.78,2.36,1.18,3.58.92,2.82,1.75,5.47,2.53,7.99.1.32.19.63.29.94l.13.44s-.06-.1-.08-.11l-.04.3c-.03.21-.05.46,0,.7.08.49.39.93.84,1.2.46.28.99.23,1.56.09l.35-.08.09-.02h.05s.15-.08.15-.08l.62-.29c.83-.4,1.67-.79,2.52-1.19,1.68-.82,3.39-1.66,5.17-2.52,3.46-1.72,8.24-3.65,12.43-5.01,1.89-.65,3.86-1.5,6.04-2.54,2.11-.99,4.26-2.16,6.55-3.53,4.55-2.73,9.69-6.28,15.27-10.44,2.06-1.54,5.8-4.4,10.67-8.3,2.43-1.95,5.15-4.16,8.07-6.59,1.45-1.22,2.96-2.5,4.53-3.82.77-.66,1.56-1.34,2.36-2.03.4-.34.8-.69,1.2-1.04l.4-.33.51-.41c.34-.27.7-.53,1.06-.79,2.89-2.04,6.28-3.54,9.96-4.27,3.7-.73,7.61-.61,11.4.34,3.79.97,7.44,2.8,10.46,5.44,3.04,2.61,5.52,5.96,7.12,9.75.76,1.91,1.37,3.9,1.67,5.95l.21,1.54c.04.51.06,1.03.09,1.54l.03.77v.39s0,.26,0,.26l-.02.96c-.06,2.57-.11,5.16-.17,7.74l-.06,1.94c-.02.6-.04,1.51-.06,1.36-.04.18-.11.39-.1.6,0,.43.2.88.58,1.16l-10.51,17.71c-3.35-1.54-6.25-4.12-8.15-7.38-1.93-3.27-2.78-7.11-2.5-11.12l.04-1.28.04-.76c.03-.51.06-1.02.09-1.53.07-1.02.14-2.05.2-3.09.15-2.08.31-4.2.47-6.36l.04-.41.05-.32c.03-.21,0-.42.03-.65,0-.22-.04-.43-.03-.66-.03-.22-.09-.44-.11-.67-.19-.9-.64-1.81-1.3-2.6-.66-.79-1.54-1.45-2.55-1.87-.99-.42-2.2-.55-3.32-.38-.95.16-1.89.49-2.71,1.01-.21.12-.41.26-.6.41-.1.07-.19.15-.28.23l-.57.47-2.53,2.08c-3.39,2.75-6.82,5.44-10.3,8.07-6.96,5.26-14.12,10.28-21.44,15.03-1.84,1.19-3.67,2.36-5.54,3.52-1.89,1.17-3.81,2.33-5.79,3.46-1.98,1.13-4.03,2.23-6.14,3.27-2.11,1.03-4.1,1.95-6.38,2.9-1.12.46-2.32.92-3.37,1.29l-2.67,1.01c-1.7.7-3.27,1.54-4.92,2.28l-12.14,6.96c-.85.42-1.7.94-2.56,1.25-.87.36-1.73.6-2.61.83-1.76.43-3.59.58-5.4.42-5.37-.4-10.45-3.43-13.26-7.97-.39-.53-.65-1.18-.93-1.82l-.83-1.91c-.28-.63-.55-1.27-.77-1.95l-.18-.51-.23-.61-.25-.69c-.5-1.38-1-2.76-1.5-4.14-.97-2.77-1.95-5.52-2.92-8.27l-.36-1.04-.16-.46-.02-.1v-.05s0,0-.03-.03l-.07-.14-.28-.57-.54-1.15c-.35-.77-.7-1.54-1.03-2.32l-.64-1.51-.75-1.88c-1.76-4.49-1.54-9.57.66-13.76,1.07-2.11,2.6-3.92,4.46-5.47l2.24-1.88,1.58-1.3,41.6-38.28c3.44-3.19,6.85-6.39,10.19-9.6,3.33-3.2,6.66-6.45,9.59-9.59.39-.4.68-.76,1.03-1.14.33-.37.67-.74,1.06-1.21l2.25-2.64c1.51-1.75,2.97-3.54,4.45-5.31,2.95-3.56,5.83-7.17,8.68-10.8Z"/>
      <path class="cls-1" d="M341.7,493.96l-20.24-1.44c.27-3.16.63-7.26,1.05-12.11.17-1.84.35-3.83.55-5.95.07-.53-.18-1.12-.69-1.42-.26-.16-.56-.2-.64-.21-3.27-1.01-6.25-1.94-9.01-2.79-3.09-.93-5.94-1.79-8.62-2.6-5.38-1.56-10.08-2.92-14.73-4.26-4.65-1.33-9.23-2.65-14.34-4.2-1.28-.39-2.59-.79-3.94-1.21-.68-.21-1.36-.42-2.06-.64l-.12-.04h0s0,0,0,0h-.01s-.02.02-.02.02c-.05.04-.05.09-.05.11h0c-2.02,2.7-3.9,5.21-5.71,7.62-2.05,2.71-4.03,5.31-6.03,7.9-2.01,2.58-4.03,5.15-6.18,7.8-.54.66-1.08,1.33-1.63,2-.35.42-.7.84-1.05,1.27-.46.56-.97,1.08-1.47,1.61-2.08,2.08-4.58,3.9-7.43,5.24-2.84,1.34-5.78,2.1-8.62,2.36-2.84.27-5.55.04-8.12-.52-5.14-1.18-9.46-3.81-12.69-7.13-1.61-1.68-2.95-3.53-4.04-5.51-.55-.99-1-2.01-1.41-3.05-.36-.98-.82-2.41-.76-2.52l-.04-.31c-.01-.09,0-.12,0-.18,0-.11-.02-.22-.04-.33-.04-.22-.11-.43-.22-.64-.21-.41-.57-.75-1.01-.98l-.16-.09-.08-.05-.26-.11c-.35-.15-.69-.31-1.04-.46-.7-.3-1.41-.61-2.13-.93-1.45-.61-2.94-1.24-4.49-1.89-3.1-1.28-6.45-2.6-10.13-3.98-7.36-2.76-16.08-5.78-26.94-9.22-.85-.27-1.93-.61-3.24-1.02-.66-.21-1.37-.43-2.14-.68-.36-.11-.74-.23-1.12-.35-.11-.02-.22-.03-.33-.05-.43-.09-.92-.11-1.38.14-.46.22-.8.71-.94,1.23l-.05.16-.03.08-.21.39c-.3.54-.6,1.09-.91,1.65-.61,1.12-1.27,2.25-1.94,3.42-1.33,2.34-2.78,4.78-4.31,7.3-3.07,5.04-6.49,10.41-10.25,15.86-7.49,10.94-16.32,22.24-25.64,32.39l-15.68-12.87c4.48-5.91,9.78-11.66,15.37-18.06,5.59-6.39,11.47-13.43,16.94-21.82,2.02-3.1,4-6.22,5.97-9.36l2.9-4.73,3.43-5.72c1.37-2.28,3.12-4.2,5.27-5.64,2.13-1.44,4.6-2.37,7.15-2.72,2.56-.35,5.16-.09,7.67.72.63.2,1.26.43,1.89.67l1.65.62,2.07.77,16.58,6.14,33.84,12.54c4.36,1.6,7.96,4.94,9.88,9.15.24.52.46,1.07.64,1.6l.42,1.38.1.34c.03.09.08.29.09.27l.08.17c.05.11.08.24.14.35.23.45.49.88.8,1.29,1.14,1.44,2.77,2.41,4.54,2.67,1.84.29,3.63-.12,5.15-1.2.38-.27.74-.6,1.08-.96l.13-.14s.16-.19.23-.28l.52-.64,1.03-1.27,4.13-5.08c2.74-3.39,5.49-6.79,8.25-10.21l7.31-10.12c1.53-2.07,3.42-3.79,5.65-4.99,2.21-1.21,4.71-1.89,7.24-2.01,2.54-.15,5.05.45,7.54,1.3l4.46,1.39,16.64,5.14,34.45,10.67c4.86,1.55,8.86,5.04,11.01,9.58.54,1.13.96,2.31,1.27,3.52.3,1.22.46,2.47.53,3.73.07,1.26-.07,2.57-.17,3.86l-.2,2.53c-.37,5.24-.68,10.49-.92,15.73Z"/>
      <path class="cls-1" d="M138.89,625.48l10.51-17.71c.16.06.33.13.51.2.85.29,1.75.6,2.69.93,1.9.65,4,1.36,6.27,2.13,4.56,1.53,9.83,3.28,15.65,5.16,9.53,3.07,16.97,5.33,23.61,7.28,1.66.48,3.27.95,4.84,1.41l.59.17c.18.05.47.14.42.11h.14c.09-.01.17-.02.25-.05.32-.1.5-.41.51-.67v-.05s0-.03,0-.03c0,0-.01,0,.08-.13.26-.38.52-.76.79-1.14.53-.77,1.08-1.56,1.65-2.38,1.14-1.62,2.36-3.34,3.66-5.18,2.62-3.66,5.63-7.78,9.19-12.54,1.19-1.59,2.33-3.12,3.44-4.61l.42-.56.69-.88c.47-.6.99-1.15,1.5-1.71,1.05-1.09,2.18-2.08,3.37-2.98,4.78-3.59,10.61-5.41,16.25-5.39,5.65,0,11.38,1.83,16.07,5.34,2.33,1.75,4.46,3.93,6.15,6.43l.55.86.14.22.07.11s0,0,0,.02v.02s-.02.11-.02.11c0,.08,0,.16.02.25.04.15.13.3.27.39l.11.08.06.04c.09.01.36.03.52.04.77.06,1.52.11,2.26.16,2.97.24,5.78.47,8.5.68,5.45.46,10.57.92,16.02,1.29,5.46.37,11.25.65,18.06.74,1.7.01,3.47.02,5.3.04.38,0,.77,0,1.16,0,.35,0,.71-.01,1.06-.11.7-.19,1.33-.7,1.68-1.4.17-.35.27-.74.28-1.15.01-.41-.1-.81-.17-1.21-.06-.25-.12-.54-.19-.87-.1-.76-.22-1.6-.34-2.49-.24-1.81-.51-3.84-.78-5.95-.68-5.27-2.56-19.37-3.38-37.43-.87-18.04-.51-40.03,2.16-60.58l20.24,1.44c-.47,14.87-4.21,31.27-3.92,51.42.14,9.04.47,18.09.98,27.11.26,4.51.56,9.03.9,13.53l.56,6.76.76,8.26.03,2.98c-.03.98-.18,1.92-.39,2.87-.42,1.88-1.18,3.68-2.2,5.3-2.03,3.27-5.23,5.79-8.88,7.05-1.83.63-3.73.96-5.79,1l-4.96.03-6.67.05-26.68.22c-4.47.03-8.9,0-13.3-.08l-3.72-.07c-2.05.01-4.04-.16-5.94-.76-3.8-1.16-7.1-3.7-9.25-7.01l-1.21-2.04c-.17-.33-.3-.48-.43-.69-.29-.39-.6-.75-.95-1.1-.36-.33-.75-.63-1.16-.9-.42-.25-.86-.47-1.32-.65-.92-.33-1.96-.51-3-.46-1.02.05-2.02.31-2.95.78-.66.45-1.28.97-1.79,1.62-.14.15-.25.33-.38.49l-.68.94-1.48,2.06-5.92,8.23-12.44,17.27c-3.23,4.48-8.52,7.22-14.02,7.24-1.37.01-2.73-.17-4.08-.46-.67-.17-1.35-.35-2.02-.57l-1.87-.6-4.34-1.34-17.37-5.36-17.37-5.36-8.68-2.68-4.34-1.34-2.31-.72c-1.43-.47-2.9-.89-4.23-1.52Z"/>
    </g>
  </g>
  <g>
    <path class="cls-2" d="M516.34,461.03h47.69c2.12,0,3.23,1.12,3.23,3.46v150.76c0,1.34-1.34,3.23-3.23,3.23h-42.23c-1.78,0-3.34-1.56-3.45-3.23v-67.08l-22.95,66.86c-.89,2.34-2.79,3.45-5.8,3.45h-25.07c-2.9,0-4.79-1.11-5.68-3.45l-23.06-66.86v67.08c0,1.34-1.56,3.23-3.46,3.23h-42.23c-1.78,0-3.12-1.56-3.12-3.23v-150.76c0-2.34,1-3.46,3.12-3.46h47.69c3.45,0,6.13,1.56,7.8,4.57l31.54,87.14,31.42-87.14c1.67-3.01,4.35-4.57,7.8-4.57h0Z"/>
    <path class="cls-2" d="M607.99,461.03h40.45c2.34,0,3.45,1.12,3.45,3.46v150.76c0,2.12-1.11,3.23-3.45,3.23h-40.45c-1.45,0-3.12-1.56-3.12-3.23v-150.76c0-1.78,1.67-3.45,3.12-3.45Z"/>
    <path class="cls-2" d="M692.61,461.03h53.93c39.56,0,63.96,21.39,63.96,54.27s-24.4,54.38-63.96,54.38h-9.36v45.57c0,1.34-1.45,3.23-3.68,3.23h-40.89c-1.45,0-3.12-1.56-3.12-3.23v-150.76c0-1.78,1.67-3.57,3.12-3.46h0ZM736.74,501.81v26.96h11.81c7.91,0,13.48-5.57,13.48-13.48s-5.57-13.48-13.48-13.48h-11.81Z"/>
    <path class="cls-2" d="M888.44,464.49v112.88h42.45c2.01,0,3.01,1.11,2.9,3.23l-3.12,34.65c-.33,2.12-1.56,3.23-3.68,3.23h-82.45c-1.78,0-3.34-1.56-3.34-3.23v-150.76c0-1.78,1.56-3.57,3.34-3.46h40.45c1.78,0,3.34,1.56,3.45,3.46h0Z"/>
    <path class="cls-2" d="M1029.55,461.03h47.47c2.12,0,3.79,1.79,2.56,3.68l-50.48,90.81v59.72c0,1.45-1.56,3.23-3.45,3.23h-40.11c-1.78,0-3.45-1.56-3.45-3.23v-59.72l-50.36-90.81c-1.23-1.78.33-3.68,2.45-3.68h47.47c2.45,0,4.24,1.23,5.24,3.68l18.72,41,18.72-41c1-2.45,2.79-3.68,5.24-3.68Z"/>
  </g>
</svg>